<svg width="20" height="20" viewBox="0 0 20 20" fill="none" xmlns="http://www.w3.org/2000/svg">
<path fill-rule="evenodd" clip-rule="evenodd" d="M8.57143 4.44126C8.57143 6.7118 6.65264 8.55244 4.28571 8.55244C1.91879 8.55244 0 6.7118 0 4.44126C0 2.17072 1.91879 0.330078 4.28571 0.330078C6.65264 0.330078 8.57143 2.17072 8.57143 4.44126ZM20 4.44126C20 6.7118 18.0813 8.55244 15.7143 8.55244C13.3474 8.55244 11.4286 6.7118 11.4286 4.44126C11.4286 2.17072 13.3474 0.330078 15.7143 0.330078C18.0813 0.330078 20 2.17072 20 4.44126ZM4.28571 19.5156C6.65264 19.5156 8.57143 17.675 8.57143 15.4044C8.57143 13.1339 6.65264 11.2932 4.28571 11.2932C1.91879 11.2932 0 13.1339 0 15.4044C0 17.675 1.91879 19.5156 4.28571 19.5156ZM20 15.4044C20 17.675 18.0813 19.5156 15.7143 19.5156C13.3474 19.5156 11.4286 17.675 11.4286 15.4044C11.4286 13.1339 13.3474 11.2932 15.7143 11.2932C18.0813 11.2932 20 13.1339 20 15.4044Z" fill="#212529"/>
</svg>
